{"title":"Kick Ass 2 2013 TS STUDIO AUDIO READNFO XViD UNiQUE","uid":8867699,"size":748566528,"categoryP":"video","categoryS":"movies","magnet":"?xt=urn:btih:70884af1005b9205cdc4df7b65aa2cef43fb9016&amp;dn=Kick+Ass+2+2013+TS+STUDIO+AUDIO+READNFO+XViD+UNiQUE&amp;tr=udp%3A%2F%2Ftracker.openbittorrent.com%3A80&amp;tr=udp%3A%2F%2Fopen.demonii.com%3A1337&amp;tr=udp%3A%2F%2Ftracker.coppersurfer.tk%3A6969&amp;tr=udp%3A%2F%2Fexodus.desync.com%3A6969","seeders":2,"leechers":0,"uploader":"TeX","files":3,"time":1377968212,"description":"[img]http://s20.postimage.org/3o204kpod/kick_ass_2_poster.jpg[/img]\n\nFormat : AVI\nFormat/Info : Audio Video Interleave\nFile size : 709 MiB\nDuration : 1h 40mn\nOverall bit rate : 988 Kbps\nWriting application : VirtualDubMod 1.5.10.2 (build 2540/release)\nWriting library : VirtualDubMod build 2540/release\n\nVideo\nID : 0\nFormat : MPEG-4 Visual\nFormat profile : Advanced Simple@L5\nFormat settings, BVOP : 2\nFormat settings, QPel : No\nFormat settings, GMC : No warppoints\nFormat settings, Matrix : Default (H.263)\nMuxing mode : Packed bitstream\nCodec ID : XVID\nCodec ID/Hint : XviD\nDuration : 1h 40mn\nBit rate : 853 Kbps\nWidth : 638 pixels\nHeight : 318 pixels\nDisplay aspect ratio : 2.006\nFrame rate : 24.000 fps\nColor space : YUV\nChroma subsampling : 4:2:0\nBit depth : 8 bits\nScan type : Progressive\nCompression mode : Lossy\nBits/(Pixel*Frame) : 0.175\nStream size : 612 MiB (86%)\nWriting library : XviD 64\n\nAudio\nID : 1\nFormat : MPEG Audio\nFormat version : Version 1\nFormat profile : Layer 3\nCodec ID : 55\nCodec ID/Hint : MP3\nDuration : 1h 38mn\nBit rate mode : Constant\nBit rate : 128 Kbps\nChannel(s) : 2 channels\nSampling rate : 44.1 KHz\nCompression mode : Lossy\nStream size : 90.1 MiB (13%)\nAlignment : Split accross interleaves\nInterleave, duration : 42 ms (1.02 video frame)\nInterleave, preload duration : 500 ms\nWriting library : LAME?(???K%\n\n\nSource Used Kick.Ass.2.2013.iTALiAN.READNFO.MD.TELESYNC.XviD-RAVERS /SmY - Thanks\n\n\n\n &lt;a href=&quot;\nhttp://www.imdb.com/title/tt1650554/&quot; rel=&quot;nofollow&quot; target=&quot;_NEW&quot;&gt;\nhttp://www.imdb.com/title/tt1650554/&lt;/a&gt;\n\n\n\nStoryline\n\nAfter Kick-Ass' insane bravery inspires a new wave of self-made masked crusaders, led by the badass Colonel Stars and Stripes, our hero joins them on patrol. When these amateur superheroes are hunted down by Red Mist -- reborn as The Mother F%&amp;*^r -- only the blade-wielding Hit Girl can prevent their annihilation. When we last saw junior assassin Hit Girl and young vigilante Kick-Ass, they were trying to live as normal teenagers Mindy and Dave. With graduation looming and uncertain what to do, Dave decides to start the world's first superhero team with Mindy. Unfortunately, when Mindy is busted for sneaking out as Hit Girl, she's forced to retire-leaving her to navigate the terrifying world of high-school mean girls on her own. With no one left to turn to, Dave joins forces with Justice Forever, run by a born-again ex-mobster named Colonel Stars and Stripes. Just as they start to make a real difference on the streets, the world's first super villain, The Mother F%&amp;*^r, assembles his \n\n\n","torrent":{"xt":"urn:btih:70884af1005b9205cdc4df7b65aa2cef43fb9016","amp;dn":"Kick+Ass+2+2013+TS+STUDIO+AUDIO+READNFO+XViD+UNiQUE","amp;tr":["udp%3A%2F%2Ftracker.openbittorrent.com%3A80","udp%3A%2F%2Fopen.demonii.com%3A1337","udp%3A%2F%2Ftracker.coppersurfer.tk%3A6969","udp%3A%2F%2Fexodus.desync.com%3A6969"],"infoHash":"70884af1005b9205cdc4df7b65aa2cef43fb9016","infoHashBuffer":{"type":"Buffer","data":[112,136,74,241,0,91,146,5,205,196,223,123,101,170,44,239,67,251,144,22]},"announce":[],"urlList":[]}}